# xmcd
#
# Track frame offsets:
#	150
#	8145
#	28805
#	47832
#	61865
#	78215
#	94638
#	121826
#	125745
#	140028
#	152111
#	169253
#
# Disc length: 2547 seconds
#
# Revision: 2
# Processed by: cddbd v1.5.1PL0 Copyright (c) Steve Scherf et al.
# Submitted via: audiograbber 1.83.01
#
DISCID=9b09f10c
DTITLE=Vidar Busk - Love Buzz
DYEAR=2003
DGENRE=Blues
TTITLE0=Rock And Bowl
TTITLE1=Remember Me
TTITLE2=Bang The Drum
TTITLE3=Everblue Green
TTITLE4=Love Buzz
TTITLE5=Come On Down
TTITLE6=Wanna Celebrate
TTITLE7=Phone Call From New Orleans
TTITLE8=Guardian Angel
TTITLE9=Melancholy In A Frame
TTITLE10=Things Change
TTITLE11=Des Larmes Divines
EXTD=
EXTT0=
EXTT1=
EXTT2=
EXTT3=
EXTT4=
EXTT5=
EXTT6=
EXTT7=
EXTT8=
EXTT9=
EXTT10=
EXTT11=
PLAYORDER=
